<?xml version="1.0" encoding="utf-8"?>
<!-- Generator: Adobe Illustrator 26.3.1, SVG Export Plug-In . SVG Version: 6.00 Build 0)  -->
<svg version="1.1" id="icon_point" xmlns="http://www.w3.org/2000/svg" xmlns:xlink="http://www.w3.org/1999/xlink" x="0px" y="0px"
	 width="37.1px" height="37.1px" viewBox="0 0 37.1 37.1" style="enable-background:new 0 0 37.1 37.1;" xml:space="preserve">
<style type="text/css">
	.st0{fill:#681216;}
</style>
<g>
	<path class="st0" d="M19.2,13.8h-2.4v4.8h2.4c1.8,0,2.9-0.9,2.9-2.4v-0.1C22.1,14.6,21,13.8,19.2,13.8z"/>
	<path class="st0" d="M18.6,0C8.3,0,0,8.3,0,18.6s8.3,18.6,18.6,18.6s18.6-8.3,18.6-18.6S28.8,0,18.6,0z M27.1,16
		c0,4.3-3.3,6.6-7.8,6.6h-2.5v5.2h-5V9.5h7.8C24.2,9.5,27.1,11.9,27.1,16L27.1,16z"/>
</g>
</svg>
