<svg xmlns="http://www.w3.org/2000/svg" width="193.959" height="41" viewBox="0 0 193.959 41">
  <path id="logo_e_salon01" d="M-7553.334-341h-22.221l4.444-4.446h17.777l4.446,4.446Zm106.255-2.079a3.336,3.336,0,0,1-1.815.54,3.322,3.322,0,0,1-3.321-3.329,3.316,3.316,0,0,1,3.321-3.329,3.323,3.323,0,0,1,3.329,3.329,3.338,3.338,0,0,1-.907,2.285l.706.706-.588.531Zm-4.292-2.789a2.463,2.463,0,0,0,2.477,2.494,2.453,2.453,0,0,0,1.21-.312l-1.284-1.294.588-.521,1.32,1.32a2.469,2.469,0,0,0,.641-1.687,2.465,2.465,0,0,0-2.475-2.5A2.465,2.465,0,0,0-7451.371-345.868Zm7.619,1.054v-4.265h.852v4.229a1.39,1.39,0,0,0,1.56,1.476,1.39,1.39,0,0,0,1.56-1.476v-4.229h.843v4.265a2.216,2.216,0,0,1-2.4,2.275A2.224,2.224,0,0,1-7443.752-344.814Zm-23.894,0v-4.265h.853v4.229a1.39,1.39,0,0,0,1.56,1.476,1.389,1.389,0,0,0,1.558-1.476v-4.229h.845v4.265a2.217,2.217,0,0,1-2.4,2.275A2.224,2.224,0,0,1-7467.646-344.814Zm-8.417-1.054a3.3,3.3,0,0,1,3.319-3.329,3.307,3.307,0,0,1,3.331,3.329,3.313,3.313,0,0,1-3.331,3.329A3.3,3.3,0,0,1-7476.063-345.868Zm.845,0a2.446,2.446,0,0,0,2.475,2.494,2.447,2.447,0,0,0,2.477-2.494,2.451,2.451,0,0,0-2.477-2.505A2.45,2.45,0,0,0-7475.218-345.868Zm-42.417,1.752.732-.422a1.642,1.642,0,0,0,1.716,1.164c.908,0,1.358-.413,1.358-.991,0-.658-.569-.879-1.514-1.174-1.027-.329-2.019-.651-2.019-1.841a1.854,1.854,0,0,1,2.019-1.817,2.306,2.306,0,0,1,2.174,1.4l-.717.413a1.49,1.49,0,0,0-1.457-.991c-.687,0-1.165.367-1.165.953s.449.816,1.349,1.1c1.119.367,2.172.7,2.172,1.935,0,1.128-.907,1.843-2.22,1.843A2.409,2.409,0,0,1-7517.635-344.116Zm24.024,1.459-1.44-2.46h-1.514v2.46h-.852v-6.422h2.568a2,2,0,0,1,2,1.992,2,2,0,0,1-1.33,1.861l1.513,2.57Zm-2.954-3.23h1.716a1.175,1.175,0,0,0,1.145-1.2,1.168,1.168,0,0,0-1.145-1.193h-1.716Zm59.754,3.228v-6.42h3.788v.809h-2.935v1.971h2.707v.8h-2.707v2.035h2.981v.807Zm-18.118,0v-6.42h.852v6.42Zm-4.41,0v-5.612h-1.891v-.809h4.632v.809h-1.9v5.612Zm-22.851,0v-6.42h2.57a1.755,1.755,0,0,1,1.8,1.752,1.594,1.594,0,0,1-.7,1.339,1.635,1.635,0,0,1,.962,1.514,1.818,1.818,0,0,1-1.862,1.815Zm.854-.8h1.916a1.025,1.025,0,0,0,1.02-1.046,1.021,1.021,0,0,0-1.02-1.037h-1.916Zm0-2.863h1.716a.958.958,0,0,0,.953-.98.967.967,0,0,0-.953-.983h-1.716Zm-9.656,3.66v-6.42h3.79v.809h-2.936v1.971h2.705v.8h-2.705v2.035h2.981v.807Zm-8.92,0-.521-1.44h-2.89l-.523,1.44h-.907l2.393-6.42h.962l2.4,6.42Zm-3.118-2.237h2.3l-1.155-3.165Zm-4.153,2.237v-2.89h-3.118v2.89h-.852v-6.42h.852v2.724h3.118v-2.724h.845v6.42Zm-41.707-7.231v-8.888l4.444-4.446v17.779ZM-7580-354.334v-22.223l4.446,4.446v17.777l-4.446,4.446Zm15.557-4.444-4.444-4.446h13.332l-4.444,4.446Zm79.078-2.041.826-2.471c5.5,1.836,7.659.788,8.331.253a1.95,1.95,0,0,0,.763-1.735c-.108-1.147-1.429-1.866-4.337-3.044-2.482-1-6.637-2.686-6.024-6.609a4.251,4.251,0,0,1,2.062-3.122c3.192-1.881,8.834.089,9.468.322l-.894,2.448c-1.948-.708-5.639-1.474-7.251-.523a1.655,1.655,0,0,0-.811,1.278c-.185,1.191.479,2.191,4.427,3.789,2.791,1.128,5.675,2.3,5.958,5.209a4.585,4.585,0,0,1-1.735,4.025,7.15,7.15,0,0,1-4.6,1.354A19.77,19.77,0,0,1-7485.366-360.819Zm58.059-8.129a9.236,9.236,0,0,1,9.225-9.228,9.24,9.24,0,0,1,9.23,9.228,9.24,9.24,0,0,1-9.23,9.228A9.236,9.236,0,0,1-7427.307-368.947Zm2.6,0a6.63,6.63,0,0,0,6.62,6.622,6.631,6.631,0,0,0,6.624-6.622,6.631,6.631,0,0,0-6.624-6.622A6.63,6.63,0,0,0-7424.7-368.947Zm-19.044,9.028v-18.068h2.606v15.462h9.544v2.606Zm54.1-.013v-6.531l-9.938-7v13.535h-2.606V-378.5l12.544,8.844v-8.336h2.6v18.055Zm-63.639,0-1.952-4.119h-7.925l-1.952,4.119H-7468l8.8-18.565,8.8,18.565Zm-8.64-6.725h5.454l-2.728-5.755Zm-55.853,6.69v-18.017h12.3v2.606h-9.7v5.1h7.787v2.606h-7.787v5.1h9.7v2.606Zm-40-16.59h-13.332l-4.445-4.444h26.667l-4.446,4.444Z" transform="translate(7580.5 381.5)" fill="#681216" stroke="rgba(0,0,0,0)" stroke-width="1"/>
</svg>
