<svg xmlns="http://www.w3.org/2000/svg" width="39.635" height="39.635" viewBox="0 0 39.635 39.635">
  <path id="logo_instagram01" d="M-8726.057-1230.366a5.95,5.95,0,0,1-5.943-5.943v-27.748a5.951,5.951,0,0,1,5.943-5.943h27.75a5.949,5.949,0,0,1,5.941,5.943v27.748a5.948,5.948,0,0,1-5.941,5.943Zm-2.943-33.691v27.748a2.945,2.945,0,0,0,2.943,2.943h27.75a2.945,2.945,0,0,0,2.941-2.943v-27.748a2.945,2.945,0,0,0-2.941-2.943h-27.75A2.945,2.945,0,0,0-8729-1264.057Zm7.021,13.874a9.806,9.806,0,0,1,9.8-9.8,9.807,9.807,0,0,1,9.8,9.8,9.807,9.807,0,0,1-9.8,9.8A9.806,9.806,0,0,1-8721.979-1250.183Zm3,0a6.8,6.8,0,0,0,6.8,6.8,6.8,6.8,0,0,0,6.8-6.8,6.8,6.8,0,0,0-6.8-6.8A6.8,6.8,0,0,0-8718.979-1250.183Zm12.726-11.45a3.99,3.99,0,0,1,3.984-3.986,3.988,3.988,0,0,1,3.983,3.986,3.988,3.988,0,0,1-3.983,3.986A3.99,3.99,0,0,1-8706.253-1261.634Zm3,0a.986.986,0,0,0,.984.986.986.986,0,0,0,.983-.986.986.986,0,0,0-.983-.986A.986.986,0,0,0-8703.253-1261.634Z" transform="translate(8732 1270)" fill="#681216"/>
</svg>
