<svg xmlns="http://www.w3.org/2000/svg" width="150.376" height="52.884" viewBox="0 0 150.376 52.884">
  <path id="logo_lucua_osaka01" d="M-7482.4-329.116l-2.011-2.015v-8.235h-3.112v8.783h3.112v1.467h-3.112l-2.011-2.015v-7.685l2.011-2.013h5.123v10.246h2.2v1.467Zm-11.107,0-3.751-5.857,3.384-5.855h2.011l-3.384,5.855,3.753,5.857Zm-11,0-2.015-2.015v-8.235h-3.108v8.783h3.108v1.467h-3.108l-2.014-2.015v-7.685l2.014-2.013h5.123v10.246h2.2v1.467Zm-15.955,0v-1.467h4.577v-3.658h-2.927l-2.015-2.013v-2.562l2.015-2.013h4.573v1.463h-4.573v3.66h2.927l2.013,2.011v2.564l-2.013,2.015Zm20.731,0v-11.713h2.015v11.713Zm-28.341,0-2.013-2.013v-7.687l2.013-2.013h2.928l2.013,2.013v7.687l-2.013,2.013Zm0-1.467h2.928v-8.781h-2.928Zm91.028-16.195-5.88-5.882v-24.061h-9.091v25.668h9.091v4.275h-9.091l-5.882-5.882V-375.12l5.88-5.88h14.977v29.943h6.415v4.278Zm-45.831,0-5.882-5.882V-381h5.884v29.943h8.553V-381h5.882v28.339l-5.88,5.882Zm-35.2-5.882V-375.12l5.882-5.88h12.835v4.28h-12.832v25.661h12.832v4.278l-12.832,0Zm-24.774,5.882-5.882-5.882V-381h5.882v29.943h8.555V-381h5.882v28.339l-5.88,5.882Zm-37.152,0V-381h5.88v29.943h17.113v4.278Z" transform="translate(7580.5 381.5)" fill="#fff" stroke="rgba(0,0,0,0)" stroke-width="1"/>
</svg>
